<?xml version="1.0" encoding="UTF-8" standalone="no"?>
<!DOCTYPE svg PUBLIC "-//W3C//DTD SVG 1.1//EN"
 "http://www.w3.org/Graphics/SVG/1.1/DTD/svg11.dtd">
<!-- Generated by graphviz version 8.0.1 (0)
 -->
<!-- Title: Octree Pages: 1 -->
<svg width="1847pt" height="484pt"
 viewBox="0.00 0.00 1846.84 484.26" xmlns="http://www.w3.org/2000/svg" xmlns:xlink="http://www.w3.org/1999/xlink">
<g id="graph0" class="graph" transform="scale(1 1) rotate(0) translate(4 480.26)">
<title>Octree</title>
<polygon fill="white" stroke="none" points="-4,4 -4,-480.26 1842.84,-480.26 1842.84,4 -4,4"/>
<!-- 0x556f16202300 -->
<g id="node1" class="node">
<title>0x556f16202300</title>
<ellipse fill="none" stroke="black" cx="711.84" cy="-435.97" rx="40.09" ry="40.09"/>
<text text-anchor="middle" x="711.84" y="-432.27" font-family="Times,serif" font-size="14.00">0, 0, 0</text>
</g>
<!-- 0x556f16decd20 -->
<g id="node2" class="node">
<title>0x556f16decd20</title>
<ellipse fill="none" stroke="black" cx="83.84" cy="-275.83" rx="83.69" ry="83.69"/>
<text text-anchor="middle" x="83.84" y="-272.13" font-family="Times,serif" font-size="14.00">&#45;200, &#45;200, &#45;200</text>
</g>
<!-- 0x556f16202300&#45;&gt;0x556f16decd20 -->
<g id="edge1" class="edge">
<title>0x556f16202300&#45;&gt;0x556f16decd20</title>
<path fill="none" stroke="black" d="M671.81,-432.34C563.22,-424.75 265.36,-400.67 176.84,-359.67 167.6,-355.39 158.6,-349.87 150.08,-343.73"/>
<polygon fill="black" stroke="black" points="152.46,-340.38 142.38,-337.12 148.23,-345.96 152.46,-340.38"/>
</g>
<!-- 0x556f16decda0 -->
<g id="node3" class="node">
<title>0x556f16decda0</title>
<ellipse fill="none" stroke="black" cx="266.84" cy="-275.83" rx="81.49" ry="81.49"/>
<text text-anchor="middle" x="266.84" y="-272.13" font-family="Times,serif" font-size="14.00">&#45;200, &#45;200, 200</text>
</g>
<!-- 0x556f16202300&#45;&gt;0x556f16decda0 -->
<g id="edge2" class="edge">
<title>0x556f16202300&#45;&gt;0x556f16decda0</title>
<path fill="none" stroke="black" d="M671.47,-433.3C603.08,-429.02 461.67,-413.78 356.84,-359.67 347.74,-354.97 338.87,-349.1 330.47,-342.67"/>
<polygon fill="black" stroke="black" points="332.89,-339.32 322.9,-335.79 328.51,-344.78 332.89,-339.32"/>
</g>
<!-- 0x556f16dece20 -->
<g id="node4" class="node">
<title>0x556f16dece20</title>
<ellipse fill="none" stroke="black" cx="446.84" cy="-275.83" rx="81.49" ry="81.49"/>
<text text-anchor="middle" x="446.84" y="-272.13" font-family="Times,serif" font-size="14.00">&#45;200, 200, &#45;200</text>
</g>
<!-- 0x556f16202300&#45;&gt;0x556f16dece20 -->
<g id="edge3" class="edge">
<title>0x556f16202300&#45;&gt;0x556f16dece20</title>
<path fill="none" stroke="black" d="M673.82,-422.81C637.08,-410.12 580.69,-388.1 536.84,-359.67 528.38,-354.18 519.96,-347.88 511.85,-341.25"/>
<polygon fill="black" stroke="black" points="514.44,-338.01 504.53,-334.25 509.93,-343.37 514.44,-338.01"/>
</g>
<!-- 0x556f16decea0 -->
<g id="node5" class="node">
<title>0x556f16decea0</title>
<ellipse fill="none" stroke="black" cx="623.84" cy="-275.83" rx="77.99" ry="77.99"/>
<text text-anchor="middle" x="623.84" y="-272.13" font-family="Times,serif" font-size="14.00">&#45;200, 200, 200</text>
</g>
<!-- 0x556f16202300&#45;&gt;0x556f16decea0 -->
<g id="edge4" class="edge">
<title>0x556f16202300&#45;&gt;0x556f16decea0</title>
<path fill="none" stroke="black" d="M692.75,-400.65C685.1,-386.91 675.95,-370.47 666.86,-354.14"/>
<polygon fill="black" stroke="black" points="669.45,-352.59 661.53,-345.56 663.33,-356 669.45,-352.59"/>
</g>
<!-- 0x556f16decf20 -->
<g id="node6" class="node">
<title>0x556f16decf20</title>
<ellipse fill="none" stroke="black" cx="800.84" cy="-275.83" rx="81.49" ry="81.49"/>
<text text-anchor="middle" x="800.84" y="-272.13" font-family="Times,serif" font-size="14.00">200, &#45;200, &#45;200</text>
</g>
<!-- 0x556f16202300&#45;&gt;0x556f16decf20 -->
<g id="edge5" class="edge">
<title>0x556f16202300&#45;&gt;0x556f16decf20</title>
<path fill="none" stroke="black" d="M731.15,-400.65C738.44,-387.71 747.06,-372.39 755.72,-357.01"/>
<polygon fill="black" stroke="black" points="759.24,-358.88 761.1,-348.45 753.14,-355.45 759.24,-358.88"/>
</g>
<!-- 0x556f16decfa0 -->
<g id="node7" class="node">
<title>0x556f16decfa0</title>
<ellipse fill="none" stroke="black" cx="977.84" cy="-275.83" rx="77.99" ry="77.99"/>
<text text-anchor="middle" x="977.84" y="-272.13" font-family="Times,serif" font-size="14.00">200, &#45;200, 200</text>
</g>
<!-- 0x556f16202300&#45;&gt;0x556f16decfa0 -->
<g id="edge6" class="edge">
<title>0x556f16202300&#45;&gt;0x556f16decfa0</title>
<path fill="none" stroke="black" d="M750.15,-423.37C787.8,-410.96 845.99,-389.03 890.84,-359.67 899.61,-353.93 908.29,-347.25 916.58,-340.23"/>
<polygon fill="black" stroke="black" points="918.5,-342.32 923.72,-333.1 913.89,-337.05 918.5,-342.32"/>
</g>
<!-- 0x556f16ded020 -->
<g id="node8" class="node">
<title>0x556f16ded020</title>
<ellipse fill="none" stroke="black" cx="1151.84" cy="-275.83" rx="77.99" ry="77.99"/>
<text text-anchor="middle" x="1151.84" y="-272.13" font-family="Times,serif" font-size="14.00">200, 200, &#45;200</text>
</g>
<!-- 0x556f16202300&#45;&gt;0x556f16ded020 -->
<g id="edge7" class="edge">
<title>0x556f16202300&#45;&gt;0x556f16ded020</title>
<path fill="none" stroke="black" d="M752.09,-433.44C820.24,-429.37 961.07,-414.43 1064.84,-359.67 1074.25,-354.71 1083.36,-348.43 1091.92,-341.57"/>
<polygon fill="black" stroke="black" points="1093.89,-343.65 1099.29,-334.53 1089.38,-338.29 1093.89,-343.65"/>
</g>
<!-- 0x556f16ded0a0 -->
<g id="node9" class="node">
<title>0x556f16ded0a0</title>
<ellipse fill="none" stroke="black" cx="1322.84" cy="-275.83" rx="75.29" ry="75.29"/>
<text text-anchor="middle" x="1322.84" y="-272.13" font-family="Times,serif" font-size="14.00">200, 200, 200</text>
</g>
<!-- 0x556f16202300&#45;&gt;0x556f16ded0a0 -->
<g id="edge8" class="edge">
<title>0x556f16202300&#45;&gt;0x556f16ded0a0</title>
<path fill="none" stroke="black" d="M752.17,-432.47C860.06,-425.28 1152.93,-402.26 1238.84,-359.67 1248.72,-354.78 1258.15,-348.28 1266.89,-341.07"/>
<polygon fill="black" stroke="black" points="1268.81,-343.17 1274.06,-333.97 1264.21,-337.89 1268.81,-343.17"/>
</g>
<!-- 0x556f16ded530 -->
<g id="node10" class="node">
<title>0x556f16ded530</title>
<ellipse fill="none" stroke="black" cx="542.84" cy="-77.99" rx="77.99" ry="77.99"/>
<text text-anchor="middle" x="542.84" y="-74.29" font-family="Times,serif" font-size="14.00">100, 100, &#45;300</text>
</g>
<!-- 0x556f16ded020&#45;&gt;0x556f16ded530 -->
<g id="edge9" class="edge">
<title>0x556f16ded020&#45;&gt;0x556f16ded530</title>
<path fill="none" stroke="black" d="M1101.41,-216.23C1090.34,-206.61 1077.97,-197.88 1064.84,-191.99 887.85,-112.57 808.26,-232.16 629.84,-155.99 621.22,-152.3 612.85,-147.42 604.94,-141.89"/>
<polygon fill="black" stroke="black" points="607.33,-138.56 597.22,-135.4 603.15,-144.18 607.33,-138.56"/>
</g>
<!-- 0x556f16ded5b0 -->
<g id="node11" class="node">
<title>0x556f16ded5b0</title>
<ellipse fill="none" stroke="black" cx="716.84" cy="-77.99" rx="77.99" ry="77.99"/>
<text text-anchor="middle" x="716.84" y="-74.29" font-family="Times,serif" font-size="14.00">100, 100, &#45;100</text>
</g>
<!-- 0x556f16ded020&#45;&gt;0x556f16ded5b0 -->
<g id="edge10" class="edge">
<title>0x556f16ded020&#45;&gt;0x556f16ded5b0</title>
<path fill="none" stroke="black" d="M1100.67,-216.38C1089.75,-206.87 1077.62,-198.14 1064.84,-191.99 959.35,-141.16 910.24,-204.88 803.84,-155.99 795.32,-152.07 787.02,-147.04 779.15,-141.42"/>
<polygon fill="black" stroke="black" points="781.55,-138.09 771.46,-134.86 777.33,-143.68 781.55,-138.09"/>
</g>
<!-- 0x556f16ded630 -->
<g id="node12" class="node">
<title>0x556f16ded630</title>
<ellipse fill="none" stroke="black" cx="890.84" cy="-77.99" rx="77.99" ry="77.99"/>
<text text-anchor="middle" x="890.84" y="-74.29" font-family="Times,serif" font-size="14.00">100, 300, &#45;300</text>
</g>
<!-- 0x556f16ded020&#45;&gt;0x556f16ded630 -->
<g id="edge11" class="edge">
<title>0x556f16ded020&#45;&gt;0x556f16ded630</title>
<path fill="none" stroke="black" d="M1098.76,-218.5C1088.1,-208.91 1076.56,-199.6 1064.84,-191.99 1029.76,-169.17 1013.33,-178.16 977.84,-155.99 969.93,-151.04 962.03,-145.37 954.41,-139.4"/>
<polygon fill="black" stroke="black" points="957.23,-136.37 947.25,-132.81 952.84,-141.82 957.23,-136.37"/>
</g>
<!-- 0x556f16ded6b0 -->
<g id="node13" class="node">
<title>0x556f16ded6b0</title>
<ellipse fill="none" stroke="black" cx="1064.84" cy="-77.99" rx="77.99" ry="77.99"/>
<text text-anchor="middle" x="1064.84" y="-74.29" font-family="Times,serif" font-size="14.00">100, 300, &#45;100</text>
</g>
<!-- 0x556f16ded020&#45;&gt;0x556f16ded6b0 -->
<g id="edge12" class="edge">
<title>0x556f16ded020&#45;&gt;0x556f16ded6b0</title>
<path fill="none" stroke="black" d="M1120.43,-204.13C1113.97,-189.57 1107.11,-174.14 1100.5,-159.27"/>
<polygon fill="black" stroke="black" points="1103.46,-158.31 1096.21,-150.59 1097.07,-161.15 1103.46,-158.31"/>
</g>
<!-- 0x556f16ded730 -->
<g id="node14" class="node">
<title>0x556f16ded730</title>
<ellipse fill="none" stroke="black" cx="1238.84" cy="-77.99" rx="77.99" ry="77.99"/>
<text text-anchor="middle" x="1238.84" y="-74.29" font-family="Times,serif" font-size="14.00">300, 100, &#45;300</text>
</g>
<!-- 0x556f16ded020&#45;&gt;0x556f16ded730 -->
<g id="edge13" class="edge">
<title>0x556f16ded020&#45;&gt;0x556f16ded730</title>
<path fill="none" stroke="black" d="M1183.25,-204.13C1189.72,-189.57 1196.58,-174.14 1203.18,-159.27"/>
<polygon fill="black" stroke="black" points="1206.62,-161.15 1207.48,-150.59 1200.22,-158.31 1206.62,-161.15"/>
</g>
<!-- 0x556f16ded7b0 -->
<g id="node15" class="node">
<title>0x556f16ded7b0</title>
<ellipse fill="none" stroke="black" cx="1412.84" cy="-77.99" rx="77.99" ry="77.99"/>
<text text-anchor="middle" x="1412.84" y="-74.29" font-family="Times,serif" font-size="14.00">300, 100, &#45;100</text>
</g>
<!-- 0x556f16ded020&#45;&gt;0x556f16ded7b0 -->
<g id="edge14" class="edge">
<title>0x556f16ded020&#45;&gt;0x556f16ded7b0</title>
<path fill="none" stroke="black" d="M1204.93,-218.5C1215.59,-208.91 1227.13,-199.6 1238.84,-191.99 1273.92,-169.17 1290.35,-178.16 1325.84,-155.99 1333.76,-151.04 1341.65,-145.37 1349.28,-139.4"/>
<polygon fill="black" stroke="black" points="1350.85,-141.82 1356.43,-132.81 1346.45,-136.37 1350.85,-141.82"/>
</g>
<!-- 0x556f16ded830 -->
<g id="node16" class="node">
<title>0x556f16ded830</title>
<ellipse fill="none" stroke="black" cx="1586.84" cy="-77.99" rx="77.99" ry="77.99"/>
<text text-anchor="middle" x="1586.84" y="-74.29" font-family="Times,serif" font-size="14.00">300, 300, &#45;300</text>
</g>
<!-- 0x556f16ded020&#45;&gt;0x556f16ded830 -->
<g id="edge15" class="edge">
<title>0x556f16ded020&#45;&gt;0x556f16ded830</title>
<path fill="none" stroke="black" d="M1203.02,-216.38C1213.94,-206.87 1226.07,-198.14 1238.84,-191.99 1344.33,-141.16 1393.44,-204.88 1499.84,-155.99 1508.36,-152.07 1516.66,-147.04 1524.53,-141.42"/>
<polygon fill="black" stroke="black" points="1526.35,-143.68 1532.23,-134.86 1522.14,-138.09 1526.35,-143.68"/>
</g>
<!-- 0x556f16ded8b0 -->
<g id="node17" class="node">
<title>0x556f16ded8b0</title>
<ellipse fill="none" stroke="black" cx="1760.84" cy="-77.99" rx="77.99" ry="77.99"/>
<text text-anchor="middle" x="1760.84" y="-74.29" font-family="Times,serif" font-size="14.00">300, 300, &#45;100</text>
</g>
<!-- 0x556f16ded020&#45;&gt;0x556f16ded8b0 -->
<g id="edge16" class="edge">
<title>0x556f16ded020&#45;&gt;0x556f16ded8b0</title>
<path fill="none" stroke="black" d="M1202.27,-216.23C1213.34,-206.61 1225.71,-197.88 1238.84,-191.99 1415.84,-112.57 1495.43,-232.16 1673.84,-155.99 1682.47,-152.3 1690.83,-147.42 1698.74,-141.89"/>
<polygon fill="black" stroke="black" points="1700.53,-144.18 1706.47,-135.4 1696.36,-138.56 1700.53,-144.18"/>
</g>
</g>
</svg>
