<?xml version="1.0" encoding="UTF-8" standalone="no"?>
<!DOCTYPE svg PUBLIC "-//W3C//DTD SVG 1.1//EN"
 "http://www.w3.org/Graphics/SVG/1.1/DTD/svg11.dtd">
<!-- Generated by graphviz version 8.0.3 (0)
 -->
<!-- Title: Octree Pages: 1 -->
<svg width="1520pt" height="491pt"
 viewBox="0.00 0.00 1520.09 490.76" xmlns="http://www.w3.org/2000/svg" xmlns:xlink="http://www.w3.org/1999/xlink">
<g id="graph0" class="graph" transform="scale(1 1) rotate(0) translate(4 486.76)">
<title>Octree</title>
<polygon fill="white" stroke="none" points="-4,4 -4,-486.76 1516.09,-486.76 1516.09,4 -4,4"/>
<!-- 0x558d80b36300 -->
<g id="node1" class="node">
<title>0x558d80b36300</title>
<ellipse fill="none" stroke="black" cx="711.84" cy="-442.47" rx="40.09" ry="40.09"/>
<text text-anchor="middle" x="711.84" y="-438.77" font-family="Times,serif" font-size="14.00">0, 0, 0</text>
</g>
<!-- 0x558d8262ece0 -->
<g id="node2" class="node">
<title>0x558d8262ece0</title>
<ellipse fill="none" stroke="black" cx="83.84" cy="-282.33" rx="83.69" ry="83.69"/>
<text text-anchor="middle" x="83.84" y="-278.63" font-family="Times,serif" font-size="14.00">&#45;200, &#45;200, &#45;200</text>
</g>
<!-- 0x558d80b36300&#45;&gt;0x558d8262ece0 -->
<g id="edge1" class="edge">
<title>0x558d80b36300&#45;&gt;0x558d8262ece0</title>
<path fill="none" stroke="black" d="M671.81,-438.84C563.22,-431.25 265.36,-407.17 176.84,-366.17 167.6,-361.89 158.6,-356.37 150.08,-350.23"/>
<polygon fill="black" stroke="black" points="152.46,-346.88 142.38,-343.62 148.23,-352.46 152.46,-346.88"/>
</g>
<!-- 0x558d8262ed60 -->
<g id="node3" class="node">
<title>0x558d8262ed60</title>
<ellipse fill="none" stroke="black" cx="266.84" cy="-282.33" rx="81.49" ry="81.49"/>
<text text-anchor="middle" x="266.84" y="-278.63" font-family="Times,serif" font-size="14.00">&#45;200, &#45;200, 200</text>
</g>
<!-- 0x558d80b36300&#45;&gt;0x558d8262ed60 -->
<g id="edge2" class="edge">
<title>0x558d80b36300&#45;&gt;0x558d8262ed60</title>
<path fill="none" stroke="black" d="M671.47,-439.8C603.08,-435.52 461.67,-420.28 356.84,-366.17 347.74,-361.47 338.87,-355.6 330.47,-349.17"/>
<polygon fill="black" stroke="black" points="332.89,-345.82 322.9,-342.29 328.51,-351.28 332.89,-345.82"/>
</g>
<!-- 0x558d8262ede0 -->
<g id="node4" class="node">
<title>0x558d8262ede0</title>
<ellipse fill="none" stroke="black" cx="446.84" cy="-282.33" rx="81.49" ry="81.49"/>
<text text-anchor="middle" x="446.84" y="-278.63" font-family="Times,serif" font-size="14.00">&#45;200, 200, &#45;200</text>
</g>
<!-- 0x558d80b36300&#45;&gt;0x558d8262ede0 -->
<g id="edge3" class="edge">
<title>0x558d80b36300&#45;&gt;0x558d8262ede0</title>
<path fill="none" stroke="black" d="M673.82,-429.31C637.08,-416.62 580.69,-394.6 536.84,-366.17 528.38,-360.68 519.96,-354.38 511.85,-347.75"/>
<polygon fill="black" stroke="black" points="514.44,-344.51 504.53,-340.75 509.93,-349.87 514.44,-344.51"/>
</g>
<!-- 0x558d8262ee60 -->
<g id="node5" class="node">
<title>0x558d8262ee60</title>
<ellipse fill="none" stroke="black" cx="623.84" cy="-282.33" rx="77.99" ry="77.99"/>
<text text-anchor="middle" x="623.84" y="-278.63" font-family="Times,serif" font-size="14.00">&#45;200, 200, 200</text>
</g>
<!-- 0x558d80b36300&#45;&gt;0x558d8262ee60 -->
<g id="edge4" class="edge">
<title>0x558d80b36300&#45;&gt;0x558d8262ee60</title>
<path fill="none" stroke="black" d="M692.75,-407.15C685.1,-393.41 675.95,-376.97 666.86,-360.64"/>
<polygon fill="black" stroke="black" points="669.45,-359.09 661.53,-352.05 663.33,-362.49 669.45,-359.09"/>
</g>
<!-- 0x558d8262eee0 -->
<g id="node6" class="node">
<title>0x558d8262eee0</title>
<ellipse fill="none" stroke="black" cx="800.84" cy="-282.33" rx="81.49" ry="81.49"/>
<text text-anchor="middle" x="800.84" y="-278.63" font-family="Times,serif" font-size="14.00">200, &#45;200, &#45;200</text>
</g>
<!-- 0x558d80b36300&#45;&gt;0x558d8262eee0 -->
<g id="edge5" class="edge">
<title>0x558d80b36300&#45;&gt;0x558d8262eee0</title>
<path fill="none" stroke="black" d="M731.15,-407.15C738.44,-394.21 747.06,-378.89 755.72,-363.51"/>
<polygon fill="black" stroke="black" points="759.24,-365.38 761.1,-354.95 753.14,-361.95 759.24,-365.38"/>
</g>
<!-- 0x558d8262ef60 -->
<g id="node7" class="node">
<title>0x558d8262ef60</title>
<ellipse fill="none" stroke="black" cx="977.84" cy="-282.33" rx="77.99" ry="77.99"/>
<text text-anchor="middle" x="977.84" y="-278.63" font-family="Times,serif" font-size="14.00">200, &#45;200, 200</text>
</g>
<!-- 0x558d80b36300&#45;&gt;0x558d8262ef60 -->
<g id="edge6" class="edge">
<title>0x558d80b36300&#45;&gt;0x558d8262ef60</title>
<path fill="none" stroke="black" d="M750.15,-429.87C787.8,-417.46 845.99,-395.53 890.84,-366.17 899.61,-360.43 908.29,-353.75 916.58,-346.73"/>
<polygon fill="black" stroke="black" points="918.5,-348.82 923.72,-339.6 913.89,-343.55 918.5,-348.82"/>
</g>
<!-- 0x558d8262efe0 -->
<g id="node8" class="node">
<title>0x558d8262efe0</title>
<ellipse fill="none" stroke="black" cx="1151.84" cy="-282.33" rx="77.99" ry="77.99"/>
<text text-anchor="middle" x="1151.84" y="-278.63" font-family="Times,serif" font-size="14.00">200, 200, &#45;200</text>
</g>
<!-- 0x558d80b36300&#45;&gt;0x558d8262efe0 -->
<g id="edge7" class="edge">
<title>0x558d80b36300&#45;&gt;0x558d8262efe0</title>
<path fill="none" stroke="black" d="M752.09,-439.94C820.24,-435.87 961.07,-420.93 1064.84,-366.17 1074.25,-361.21 1083.36,-354.93 1091.92,-348.07"/>
<polygon fill="black" stroke="black" points="1093.89,-350.15 1099.29,-341.03 1089.38,-344.79 1093.89,-350.15"/>
</g>
<!-- 0x558d8262f060 -->
<g id="node9" class="node">
<title>0x558d8262f060</title>
<ellipse fill="none" stroke="black" cx="1322.84" cy="-282.33" rx="75.29" ry="75.29"/>
<text text-anchor="middle" x="1322.84" y="-278.63" font-family="Times,serif" font-size="14.00">200, 200, 200</text>
</g>
<!-- 0x558d80b36300&#45;&gt;0x558d8262f060 -->
<g id="edge8" class="edge">
<title>0x558d80b36300&#45;&gt;0x558d8262f060</title>
<path fill="none" stroke="black" d="M752.17,-438.97C860.06,-431.78 1152.93,-408.76 1238.84,-366.17 1248.72,-361.28 1258.15,-354.78 1266.89,-347.57"/>
<polygon fill="black" stroke="black" points="1268.81,-349.67 1274.06,-340.47 1264.21,-344.39 1268.81,-349.67"/>
</g>
<!-- 0x558d8262f4f0 -->
<g id="node10" class="node">
<title>0x558d8262f4f0</title>
<ellipse fill="none" stroke="black" cx="170.84" cy="-81.24" rx="81.49" ry="81.49"/>
<text text-anchor="middle" x="170.84" y="-77.54" font-family="Times,serif" font-size="14.00">100, &#45;300, &#45;300</text>
</g>
<!-- 0x558d8262eee0&#45;&gt;0x558d8262f4f0 -->
<g id="edge9" class="edge">
<title>0x558d8262eee0&#45;&gt;0x558d8262f4f0</title>
<path fill="none" stroke="black" d="M746.43,-221.02C735.52,-212.07 723.49,-204.01 710.84,-198.49 526.99,-118.16 445.33,-241.35 260.84,-162.49 251.87,-158.65 243.17,-153.55 234.96,-147.77"/>
<polygon fill="black" stroke="black" points="237.35,-144.44 227.24,-141.26 233.16,-150.05 237.35,-144.44"/>
</g>
<!-- 0x558d8262f570 -->
<g id="node11" class="node">
<title>0x558d8262f570</title>
<ellipse fill="none" stroke="black" cx="350.84" cy="-81.24" rx="81.49" ry="81.49"/>
<text text-anchor="middle" x="350.84" y="-77.54" font-family="Times,serif" font-size="14.00">100, &#45;300, &#45;100</text>
</g>
<!-- 0x558d8262eee0&#45;&gt;0x558d8262f570 -->
<g id="edge10" class="edge">
<title>0x558d8262eee0&#45;&gt;0x558d8262f570</title>
<path fill="none" stroke="black" d="M746.18,-221.58C735.3,-212.57 723.34,-204.34 710.84,-198.49 601.22,-147.11 550.87,-212.99 440.84,-162.49 432.04,-158.45 423.48,-153.24 415.36,-147.43"/>
<polygon fill="black" stroke="black" points="417.83,-144.15 407.74,-140.92 413.61,-149.74 417.83,-144.15"/>
</g>
<!-- 0x558d8262f5f0 -->
<g id="node12" class="node">
<title>0x558d8262f5f0</title>
<ellipse fill="none" stroke="black" cx="530.84" cy="-81.24" rx="81.49" ry="81.49"/>
<text text-anchor="middle" x="530.84" y="-77.54" font-family="Times,serif" font-size="14.00">100, &#45;100, &#45;300</text>
</g>
<!-- 0x558d8262eee0&#45;&gt;0x558d8262f5f0 -->
<g id="edge11" class="edge">
<title>0x558d8262eee0&#45;&gt;0x558d8262f5f0</title>
<path fill="none" stroke="black" d="M744.31,-223.66C733.72,-214.53 722.34,-205.73 710.84,-198.49 674.39,-175.52 657.47,-185.16 620.84,-162.49 612.74,-157.47 604.67,-151.7 596.88,-145.6"/>
<polygon fill="black" stroke="black" points="599.53,-142.43 589.55,-138.88 595.13,-147.88 599.53,-142.43"/>
</g>
<!-- 0x558d8262f670 -->
<g id="node13" class="node">
<title>0x558d8262f670</title>
<ellipse fill="none" stroke="black" cx="710.84" cy="-81.24" rx="81.49" ry="81.49"/>
<text text-anchor="middle" x="710.84" y="-77.54" font-family="Times,serif" font-size="14.00">100, &#45;100, &#45;100</text>
</g>
<!-- 0x558d8262eee0&#45;&gt;0x558d8262f670 -->
<g id="edge12" class="edge">
<title>0x558d8262eee0&#45;&gt;0x558d8262f670</title>
<path fill="none" stroke="black" d="M767.46,-207.48C761.34,-193.94 754.91,-179.73 748.68,-165.93"/>
<polygon fill="black" stroke="black" points="751.48,-164.64 744.17,-156.97 745.1,-167.53 751.48,-164.64"/>
</g>
<!-- 0x558d8262f6f0 -->
<g id="node14" class="node">
<title>0x558d8262f6f0</title>
<ellipse fill="none" stroke="black" cx="890.84" cy="-81.24" rx="81.49" ry="81.49"/>
<text text-anchor="middle" x="890.84" y="-77.54" font-family="Times,serif" font-size="14.00">300, &#45;300, &#45;300</text>
</g>
<!-- 0x558d8262eee0&#45;&gt;0x558d8262f6f0 -->
<g id="edge13" class="edge">
<title>0x558d8262eee0&#45;&gt;0x558d8262f6f0</title>
<path fill="none" stroke="black" d="M834.23,-207.48C840.35,-193.94 846.77,-179.73 853.01,-165.93"/>
<polygon fill="black" stroke="black" points="856.58,-167.53 857.51,-156.97 850.2,-164.64 856.58,-167.53"/>
</g>
<!-- 0x558d8262f770 -->
<g id="node15" class="node">
<title>0x558d8262f770</title>
<ellipse fill="none" stroke="black" cx="1070.84" cy="-81.24" rx="81.49" ry="81.49"/>
<text text-anchor="middle" x="1070.84" y="-77.54" font-family="Times,serif" font-size="14.00">300, &#45;300, &#45;100</text>
</g>
<!-- 0x558d8262eee0&#45;&gt;0x558d8262f770 -->
<g id="edge14" class="edge">
<title>0x558d8262eee0&#45;&gt;0x558d8262f770</title>
<path fill="none" stroke="black" d="M857.38,-223.66C867.97,-214.53 879.34,-205.73 890.84,-198.49 927.29,-175.52 944.21,-185.16 980.84,-162.49 988.95,-157.47 997.01,-151.7 1004.8,-145.6"/>
<polygon fill="black" stroke="black" points="1006.55,-147.88 1012.13,-138.88 1002.15,-142.43 1006.55,-147.88"/>
</g>
<!-- 0x558d8262f7f0 -->
<g id="node16" class="node">
<title>0x558d8262f7f0</title>
<ellipse fill="none" stroke="black" cx="1250.84" cy="-81.24" rx="81.49" ry="81.49"/>
<text text-anchor="middle" x="1250.84" y="-77.54" font-family="Times,serif" font-size="14.00">300, &#45;100, &#45;300</text>
</g>
<!-- 0x558d8262eee0&#45;&gt;0x558d8262f7f0 -->
<g id="edge15" class="edge">
<title>0x558d8262eee0&#45;&gt;0x558d8262f7f0</title>
<path fill="none" stroke="black" d="M855.51,-221.58C866.39,-212.57 878.34,-204.34 890.84,-198.49 1000.46,-147.11 1050.82,-212.99 1160.84,-162.49 1169.64,-158.45 1178.2,-153.24 1186.32,-147.43"/>
<polygon fill="black" stroke="black" points="1188.08,-149.74 1193.95,-140.92 1183.86,-144.15 1188.08,-149.74"/>
</g>
<!-- 0x558d8262f870 -->
<g id="node17" class="node">
<title>0x558d8262f870</title>
<ellipse fill="none" stroke="black" cx="1430.84" cy="-81.24" rx="81.49" ry="81.49"/>
<text text-anchor="middle" x="1430.84" y="-77.54" font-family="Times,serif" font-size="14.00">300, &#45;100, &#45;100</text>
</g>
<!-- 0x558d8262eee0&#45;&gt;0x558d8262f870 -->
<g id="edge16" class="edge">
<title>0x558d8262eee0&#45;&gt;0x558d8262f870</title>
<path fill="none" stroke="black" d="M855.26,-221.02C866.17,-212.07 878.19,-204.01 890.84,-198.49 1074.7,-118.16 1156.35,-241.35 1340.84,-162.49 1349.82,-158.65 1358.51,-153.55 1366.73,-147.77"/>
<polygon fill="black" stroke="black" points="1368.52,-150.05 1374.44,-141.26 1364.33,-144.44 1368.52,-150.05"/>
</g>
</g>
</svg>
