<?xml version="1.0" encoding="UTF-8" standalone="no"?>
<!DOCTYPE svg PUBLIC "-//W3C//DTD SVG 1.1//EN"
 "http://www.w3.org/Graphics/SVG/1.1/DTD/svg11.dtd">
<!-- Generated by graphviz version 8.0.3 (0)
 -->
<!-- Title: Octree Pages: 1 -->
<svg width="2310pt" height="426pt"
 viewBox="0.00 0.00 2309.74 425.77" xmlns="http://www.w3.org/2000/svg" xmlns:xlink="http://www.w3.org/1999/xlink">
<g id="graph0" class="graph" transform="scale(1 1) rotate(0) translate(4 421.77)">
<title>Octree</title>
<polygon fill="white" stroke="none" points="-4,4 -4,-421.77 2305.74,-421.77 2305.74,4 -4,4"/>
<!-- 0x5596c1af6340 -->
<g id="node1" class="node">
<title>0x5596c1af6340</title>
<ellipse fill="none" stroke="black" cx="1333.29" cy="-377.47" rx="40.09" ry="40.09"/>
<text text-anchor="middle" x="1333.29" y="-373.77" font-family="Times,serif" font-size="14.00">0, 0, 0</text>
</g>
<!-- 0x5596c2625000 -->
<g id="node2" class="node">
<title>0x5596c2625000</title>
<ellipse fill="none" stroke="black" cx="670.29" cy="-234.88" rx="66.09" ry="66.09"/>
<text text-anchor="middle" x="670.29" y="-231.18" font-family="Times,serif" font-size="14.00">&#45;50, &#45;50, &#45;50</text>
</g>
<!-- 0x5596c1af6340&#45;&gt;0x5596c2625000 -->
<g id="edge1" class="edge">
<title>0x5596c1af6340&#45;&gt;0x5596c2625000</title>
<path fill="none" stroke="black" d="M1293.51,-370.9C1217.18,-359.91 1045.06,-333.65 902.29,-301.18 848.73,-288.99 789.1,-272.14 743.7,-258.6"/>
<polygon fill="black" stroke="black" points="744.95,-255.02 734.36,-255.5 742.94,-261.73 744.95,-255.02"/>
</g>
<!-- 0x5596c2625080 -->
<g id="node3" class="node">
<title>0x5596c2625080</title>
<ellipse fill="none" stroke="black" cx="975.29" cy="-234.88" rx="63.89" ry="63.89"/>
<text text-anchor="middle" x="975.29" y="-231.18" font-family="Times,serif" font-size="14.00">&#45;50, &#45;50, 50</text>
</g>
<!-- 0x5596c1af6340&#45;&gt;0x5596c2625080 -->
<g id="edge2" class="edge">
<title>0x5596c1af6340&#45;&gt;0x5596c2625080</title>
<path fill="none" stroke="black" d="M1293.16,-372.03C1235.72,-364.35 1128.08,-345 1047.29,-301.18 1040.56,-297.53 1033.96,-293.12 1027.64,-288.34"/>
<polygon fill="black" stroke="black" points="1030.23,-285.12 1020.23,-281.62 1025.86,-290.59 1030.23,-285.12"/>
</g>
<!-- 0x5596c2625100 -->
<g id="node4" class="node">
<title>0x5596c2625100</title>
<ellipse fill="none" stroke="black" cx="1120.29" cy="-234.88" rx="63.89" ry="63.89"/>
<text text-anchor="middle" x="1120.29" y="-231.18" font-family="Times,serif" font-size="14.00">&#45;50, 50, &#45;50</text>
</g>
<!-- 0x5596c1af6340&#45;&gt;0x5596c2625100 -->
<g id="edge3" class="edge">
<title>0x5596c1af6340&#45;&gt;0x5596c2625100</title>
<path fill="none" stroke="black" d="M1296.83,-359.81C1267.74,-345.84 1226.51,-324.47 1193.29,-301.18 1186.98,-296.75 1180.61,-291.84 1174.4,-286.75"/>
<polygon fill="black" stroke="black" points="1176.96,-283.5 1167.06,-279.75 1172.46,-288.86 1176.96,-283.5"/>
</g>
<!-- 0x5596c2625180 -->
<g id="node5" class="node">
<title>0x5596c2625180</title>
<ellipse fill="none" stroke="black" cx="1262.29" cy="-234.88" rx="60.39" ry="60.39"/>
<text text-anchor="middle" x="1262.29" y="-231.18" font-family="Times,serif" font-size="14.00">&#45;50, 50, 50</text>
</g>
<!-- 0x5596c1af6340&#45;&gt;0x5596c2625180 -->
<g id="edge4" class="edge">
<title>0x5596c1af6340&#45;&gt;0x5596c2625180</title>
<path fill="none" stroke="black" d="M1315.56,-341.36C1309.06,-328.48 1301.48,-313.48 1294.12,-298.91"/>
<polygon fill="black" stroke="black" points="1296.96,-297.76 1289.33,-290.42 1290.71,-300.92 1296.96,-297.76"/>
</g>
<!-- 0x5596c2625200 -->
<g id="node6" class="node">
<title>0x5596c2625200</title>
<ellipse fill="none" stroke="black" cx="1404.29" cy="-234.88" rx="63.89" ry="63.89"/>
<text text-anchor="middle" x="1404.29" y="-231.18" font-family="Times,serif" font-size="14.00">50, &#45;50, &#45;50</text>
</g>
<!-- 0x5596c1af6340&#45;&gt;0x5596c2625200 -->
<g id="edge5" class="edge">
<title>0x5596c1af6340&#45;&gt;0x5596c2625200</title>
<path fill="none" stroke="black" d="M1351.03,-341.36C1357.04,-329.45 1363.97,-315.72 1370.81,-302.19"/>
<polygon fill="black" stroke="black" points="1374.37,-303.91 1375.75,-293.4 1368.12,-300.75 1374.37,-303.91"/>
</g>
<!-- 0x5596c2625280 -->
<g id="node7" class="node">
<title>0x5596c2625280</title>
<ellipse fill="none" stroke="black" cx="1546.29" cy="-234.88" rx="60.39" ry="60.39"/>
<text text-anchor="middle" x="1546.29" y="-231.18" font-family="Times,serif" font-size="14.00">50, &#45;50, 50</text>
</g>
<!-- 0x5596c1af6340&#45;&gt;0x5596c2625280 -->
<g id="edge6" class="edge">
<title>0x5596c1af6340&#45;&gt;0x5596c2625280</title>
<path fill="none" stroke="black" d="M1370.11,-360.67C1400.2,-346.95 1443.19,-325.51 1477.29,-301.18 1483.81,-296.53 1490.33,-291.3 1496.62,-285.87"/>
<polygon fill="black" stroke="black" points="1498.3,-289.18 1503.46,-279.92 1493.65,-283.94 1498.3,-289.18"/>
</g>
<!-- 0x5596c2625300 -->
<g id="node8" class="node">
<title>0x5596c2625300</title>
<ellipse fill="none" stroke="black" cx="1685.29" cy="-234.88" rx="60.39" ry="60.39"/>
<text text-anchor="middle" x="1685.29" y="-231.18" font-family="Times,serif" font-size="14.00">50, 50, &#45;50</text>
</g>
<!-- 0x5596c1af6340&#45;&gt;0x5596c2625300 -->
<g id="edge7" class="edge">
<title>0x5596c1af6340&#45;&gt;0x5596c2625300</title>
<path fill="none" stroke="black" d="M1373.42,-372C1430.28,-364.32 1536.17,-345 1615.29,-301.18 1622.55,-297.16 1629.64,-292.22 1636.35,-286.88"/>
<polygon fill="black" stroke="black" points="1638.22,-289.05 1643.63,-279.94 1633.72,-283.68 1638.22,-289.05"/>
</g>
<!-- 0x5596c2625380 -->
<g id="node9" class="node">
<title>0x5596c2625380</title>
<ellipse fill="none" stroke="black" cx="1821.29" cy="-234.88" rx="57.69" ry="57.69"/>
<text text-anchor="middle" x="1821.29" y="-231.18" font-family="Times,serif" font-size="14.00">50, 50, 50</text>
</g>
<!-- 0x5596c1af6340&#45;&gt;0x5596c2625380 -->
<g id="edge8" class="edge">
<title>0x5596c1af6340&#45;&gt;0x5596c2625380</title>
<path fill="none" stroke="black" d="M1373.77,-376.94C1451.82,-376.24 1626.67,-366.77 1754.29,-301.18 1762.08,-297.17 1769.56,-291.96 1776.51,-286.23"/>
<polygon fill="black" stroke="black" points="1778.21,-288.52 1783.42,-279.3 1773.6,-283.25 1778.21,-288.52"/>
</g>
<!-- 0x5596c2626100 -->
<g id="node10" class="node">
<title>0x5596c2626100</title>
<ellipse fill="none" stroke="black" cx="66.29" cy="-66.29" rx="66.09" ry="66.09"/>
<text text-anchor="middle" x="66.29" y="-62.59" font-family="Times,serif" font-size="14.00">&#45;75, &#45;75, &#45;75</text>
</g>
<!-- 0x5596c2625000&#45;&gt;0x5596c2626100 -->
<g id="edge9" class="edge">
<title>0x5596c2625000&#45;&gt;0x5596c2626100</title>
<path fill="none" stroke="black" d="M603.93,-232C500.39,-226.75 296.33,-206.93 142.29,-132.59 135.02,-129.08 127.89,-124.7 121.09,-119.87"/>
<polygon fill="black" stroke="black" points="123.76,-116.75 113.66,-113.56 119.56,-122.36 123.76,-116.75"/>
</g>
<!-- 0x5596c2626180 -->
<g id="node11" class="node">
<title>0x5596c2626180</title>
<ellipse fill="none" stroke="black" cx="217.29" cy="-66.29" rx="66.09" ry="66.09"/>
<text text-anchor="middle" x="217.29" y="-62.59" font-family="Times,serif" font-size="14.00">&#45;75, &#45;75, &#45;25</text>
</g>
<!-- 0x5596c2625000&#45;&gt;0x5596c2626180 -->
<g id="edge10" class="edge">
<title>0x5596c2625000&#45;&gt;0x5596c2626180</title>
<path fill="none" stroke="black" d="M604.7,-225.33C526.81,-213.18 394.71,-186.18 293.29,-132.59 286.42,-128.96 279.63,-124.6 273.11,-119.89"/>
<polygon fill="black" stroke="black" points="275.47,-116.53 265.39,-113.28 271.24,-122.11 275.47,-116.53"/>
</g>
<!-- 0x5596c2626200 -->
<g id="node12" class="node">
<title>0x5596c2626200</title>
<ellipse fill="none" stroke="black" cx="368.29" cy="-66.29" rx="66.09" ry="66.09"/>
<text text-anchor="middle" x="368.29" y="-62.59" font-family="Times,serif" font-size="14.00">&#45;75, &#45;25, &#45;75</text>
</g>
<!-- 0x5596c2625000&#45;&gt;0x5596c2626200 -->
<g id="edge11" class="edge">
<title>0x5596c2625000&#45;&gt;0x5596c2626200</title>
<path fill="none" stroke="black" d="M608.39,-211.73C561.54,-193.67 496.57,-165.77 444.29,-132.59 437.73,-128.42 431.14,-123.72 424.74,-118.8"/>
<polygon fill="black" stroke="black" points="427.15,-115.45 417.14,-111.98 422.8,-120.94 427.15,-115.45"/>
</g>
<!-- 0x5596c2626280 -->
<g id="node13" class="node">
<title>0x5596c2626280</title>
<ellipse fill="none" stroke="black" cx="519.29" cy="-66.29" rx="66.09" ry="66.09"/>
<text text-anchor="middle" x="519.29" y="-62.59" font-family="Times,serif" font-size="14.00">&#45;75, &#45;25, &#45;25</text>
</g>
<!-- 0x5596c2625000&#45;&gt;0x5596c2626280 -->
<g id="edge12" class="edge">
<title>0x5596c2625000&#45;&gt;0x5596c2626280</title>
<path fill="none" stroke="black" d="M626.21,-185.25C608.85,-166.09 588.78,-143.95 570.75,-124.06"/>
<polygon fill="black" stroke="black" points="573.74,-122.05 564.43,-116.99 568.55,-126.75 573.74,-122.05"/>
</g>
<!-- 0x5596c2626300 -->
<g id="node14" class="node">
<title>0x5596c2626300</title>
<ellipse fill="none" stroke="black" cx="670.29" cy="-66.29" rx="66.09" ry="66.09"/>
<text text-anchor="middle" x="670.29" y="-62.59" font-family="Times,serif" font-size="14.00">&#45;25, &#45;75, &#45;75</text>
</g>
<!-- 0x5596c2625000&#45;&gt;0x5596c2626300 -->
<g id="edge13" class="edge">
<title>0x5596c2625000&#45;&gt;0x5596c2626300</title>
<path fill="none" stroke="black" d="M670.29,-168.52C670.29,-160.34 670.29,-151.93 670.29,-143.6"/>
<polygon fill="black" stroke="black" points="673.79,-143.74 670.29,-133.74 666.79,-143.74 673.79,-143.74"/>
</g>
<!-- 0x5596c2626380 -->
<g id="node15" class="node">
<title>0x5596c2626380</title>
<ellipse fill="none" stroke="black" cx="821.29" cy="-66.29" rx="66.09" ry="66.09"/>
<text text-anchor="middle" x="821.29" y="-62.59" font-family="Times,serif" font-size="14.00">&#45;25, &#45;75, &#45;25</text>
</g>
<!-- 0x5596c2625000&#45;&gt;0x5596c2626380 -->
<g id="edge14" class="edge">
<title>0x5596c2625000&#45;&gt;0x5596c2626380</title>
<path fill="none" stroke="black" d="M714.38,-185.25C731.74,-166.09 751.81,-143.95 769.84,-124.06"/>
<polygon fill="black" stroke="black" points="772.04,-126.75 776.16,-116.99 766.85,-122.05 772.04,-126.75"/>
</g>
<!-- 0x5596c2626400 -->
<g id="node16" class="node">
<title>0x5596c2626400</title>
<ellipse fill="none" stroke="black" cx="972.29" cy="-66.29" rx="66.09" ry="66.09"/>
<text text-anchor="middle" x="972.29" y="-62.59" font-family="Times,serif" font-size="14.00">&#45;25, &#45;25, &#45;75</text>
</g>
<!-- 0x5596c2625000&#45;&gt;0x5596c2626400 -->
<g id="edge15" class="edge">
<title>0x5596c2625000&#45;&gt;0x5596c2626400</title>
<path fill="none" stroke="black" d="M732.2,-211.73C779.05,-193.67 844.02,-165.77 896.29,-132.59 902.86,-128.42 909.44,-123.72 915.85,-118.8"/>
<polygon fill="black" stroke="black" points="917.79,-120.94 923.45,-111.98 913.44,-115.45 917.79,-120.94"/>
</g>
<!-- 0x5596c2626480 -->
<g id="node17" class="node">
<title>0x5596c2626480</title>
<ellipse fill="none" stroke="black" cx="1123.29" cy="-66.29" rx="66.09" ry="66.09"/>
<text text-anchor="middle" x="1123.29" y="-62.59" font-family="Times,serif" font-size="14.00">&#45;25, &#45;25, &#45;25</text>
</g>
<!-- 0x5596c2625000&#45;&gt;0x5596c2626480 -->
<g id="edge16" class="edge">
<title>0x5596c2625000&#45;&gt;0x5596c2626480</title>
<path fill="none" stroke="black" d="M733.66,-215.48C780.22,-202.09 845.06,-183.74 902.29,-168.59 966.48,-151.59 988.29,-163.05 1047.29,-132.59 1054.2,-129.02 1061.01,-124.71 1067.55,-120.03"/>
<polygon fill="black" stroke="black" points="1069.41,-122.25 1075.28,-113.44 1065.19,-116.67 1069.41,-122.25"/>
</g>
<!-- 0x5596c2626500 -->
<g id="node18" class="node">
<title>0x5596c2626500</title>
<ellipse fill="none" stroke="black" cx="1268.29" cy="-66.29" rx="60.39" ry="60.39"/>
<text text-anchor="middle" x="1268.29" y="-62.59" font-family="Times,serif" font-size="14.00">25, 25, &#45;75</text>
</g>
<!-- 0x5596c2625300&#45;&gt;0x5596c2626500 -->
<g id="edge17" class="edge">
<title>0x5596c2625300&#45;&gt;0x5596c2626500</title>
<path fill="none" stroke="black" d="M1645.57,-189.08C1636.39,-181.08 1626.12,-173.68 1615.29,-168.59 1502.97,-115.72 1450.62,-185.46 1338.29,-132.59 1330.68,-129.01 1323.34,-124.29 1316.47,-119.02"/>
<polygon fill="black" stroke="black" points="1318.97,-115.73 1309.02,-112.1 1314.54,-121.14 1318.97,-115.73"/>
</g>
<!-- 0x5596c2626580 -->
<g id="node19" class="node">
<title>0x5596c2626580</title>
<ellipse fill="none" stroke="black" cx="1407.29" cy="-66.29" rx="60.39" ry="60.39"/>
<text text-anchor="middle" x="1407.29" y="-62.59" font-family="Times,serif" font-size="14.00">25, 25, &#45;25</text>
</g>
<!-- 0x5596c2625300&#45;&gt;0x5596c2626580 -->
<g id="edge18" class="edge">
<title>0x5596c2625300&#45;&gt;0x5596c2626580</title>
<path fill="none" stroke="black" d="M1644.66,-189.78C1635.62,-181.83 1625.63,-174.28 1615.29,-168.59 1559.76,-138.04 1532.83,-163.14 1477.29,-132.59 1470.02,-128.59 1462.93,-123.67 1456.21,-118.33"/>
<polygon fill="black" stroke="black" points="1458.84,-115.13 1448.93,-111.4 1454.35,-120.5 1458.84,-115.13"/>
</g>
<!-- 0x5596c2626600 -->
<g id="node20" class="node">
<title>0x5596c2626600</title>
<ellipse fill="none" stroke="black" cx="1546.29" cy="-66.29" rx="60.39" ry="60.39"/>
<text text-anchor="middle" x="1546.29" y="-62.59" font-family="Times,serif" font-size="14.00">25, 75, &#45;75</text>
</g>
<!-- 0x5596c2625300&#45;&gt;0x5596c2626600 -->
<g id="edge19" class="edge">
<title>0x5596c2625300&#45;&gt;0x5596c2626600</title>
<path fill="none" stroke="black" d="M1646.94,-187.92C1629.85,-167.43 1609.58,-143.14 1591.73,-121.75"/>
<polygon fill="black" stroke="black" points="1593.85,-119.83 1584.76,-114.39 1588.48,-124.32 1593.85,-119.83"/>
</g>
<!-- 0x5596c2626680 -->
<g id="node21" class="node">
<title>0x5596c2626680</title>
<ellipse fill="none" stroke="black" cx="1685.29" cy="-66.29" rx="60.39" ry="60.39"/>
<text text-anchor="middle" x="1685.29" y="-62.59" font-family="Times,serif" font-size="14.00">25, 75, &#45;25</text>
</g>
<!-- 0x5596c2625300&#45;&gt;0x5596c2626680 -->
<g id="edge20" class="edge">
<title>0x5596c2625300&#45;&gt;0x5596c2626680</title>
<path fill="none" stroke="black" d="M1685.29,-174.21C1685.29,-162.49 1685.29,-150.08 1685.29,-138.04"/>
<polygon fill="black" stroke="black" points="1688.79,-138.11 1685.29,-128.11 1681.79,-138.11 1688.79,-138.11"/>
</g>
<!-- 0x5596c2626700 -->
<g id="node22" class="node">
<title>0x5596c2626700</title>
<ellipse fill="none" stroke="black" cx="1824.29" cy="-66.29" rx="60.39" ry="60.39"/>
<text text-anchor="middle" x="1824.29" y="-62.59" font-family="Times,serif" font-size="14.00">75, 25, &#45;75</text>
</g>
<!-- 0x5596c2625300&#45;&gt;0x5596c2626700 -->
<g id="edge21" class="edge">
<title>0x5596c2625300&#45;&gt;0x5596c2626700</title>
<path fill="none" stroke="black" d="M1723.64,-187.92C1740.74,-167.43 1761.01,-143.14 1778.86,-121.75"/>
<polygon fill="black" stroke="black" points="1782.11,-124.32 1785.83,-114.39 1776.73,-119.83 1782.11,-124.32"/>
</g>
<!-- 0x5596c2626780 -->
<g id="node23" class="node">
<title>0x5596c2626780</title>
<ellipse fill="none" stroke="black" cx="1963.29" cy="-66.29" rx="60.39" ry="60.39"/>
<text text-anchor="middle" x="1963.29" y="-62.59" font-family="Times,serif" font-size="14.00">75, 25, &#45;25</text>
</g>
<!-- 0x5596c2625300&#45;&gt;0x5596c2626780 -->
<g id="edge22" class="edge">
<title>0x5596c2625300&#45;&gt;0x5596c2626780</title>
<path fill="none" stroke="black" d="M1725.64,-189.42C1734.46,-181.6 1744.19,-174.18 1754.29,-168.59 1810.13,-137.68 1837.35,-163.3 1893.29,-132.59 1900.57,-128.6 1907.67,-123.68 1914.38,-118.35"/>
<polygon fill="black" stroke="black" points="1916.24,-120.51 1921.67,-111.41 1911.75,-115.15 1916.24,-120.51"/>
</g>
<!-- 0x5596c2626800 -->
<g id="node24" class="node">
<title>0x5596c2626800</title>
<ellipse fill="none" stroke="black" cx="2102.29" cy="-66.29" rx="60.39" ry="60.39"/>
<text text-anchor="middle" x="2102.29" y="-62.59" font-family="Times,serif" font-size="14.00">75, 75, &#45;75</text>
</g>
<!-- 0x5596c2625300&#45;&gt;0x5596c2626800 -->
<g id="edge23" class="edge">
<title>0x5596c2625300&#45;&gt;0x5596c2626800</title>
<path fill="none" stroke="black" d="M1724.74,-188.74C1733.7,-180.87 1743.72,-173.61 1754.29,-168.59 1866.84,-115.15 1919.56,-185.62 2032.29,-132.59 2039.91,-129.01 2047.25,-124.29 2054.12,-119.02"/>
<polygon fill="black" stroke="black" points="2056.05,-121.15 2061.57,-112.11 2051.62,-115.73 2056.05,-121.15"/>
</g>
<!-- 0x5596c2626880 -->
<g id="node25" class="node">
<title>0x5596c2626880</title>
<ellipse fill="none" stroke="black" cx="2241.29" cy="-66.29" rx="60.39" ry="60.39"/>
<text text-anchor="middle" x="2241.29" y="-62.59" font-family="Times,serif" font-size="14.00">75, 75, &#45;25</text>
</g>
<!-- 0x5596c2625300&#45;&gt;0x5596c2626880 -->
<g id="edge24" class="edge">
<title>0x5596c2625300&#45;&gt;0x5596c2626880</title>
<path fill="none" stroke="black" d="M1724.58,-188.38C1733.55,-180.54 1743.61,-173.38 1754.29,-168.59 1924,-92.4 2001.32,-208.16 2171.29,-132.59 2178.98,-129.17 2186.37,-124.55 2193.27,-119.34"/>
<polygon fill="black" stroke="black" points="2195.18,-121.48 2200.74,-112.46 2190.77,-116.05 2195.18,-121.48"/>
</g>
</g>
</svg>
