<?xml version="1.0" encoding="UTF-8" standalone="no"?>
<!DOCTYPE svg PUBLIC "-//W3C//DTD SVG 1.1//EN"
 "http://www.w3.org/Graphics/SVG/1.1/DTD/svg11.dtd">
<!-- Generated by graphviz version 8.0.3 (0)
 -->
<!-- Title: QuadTree Pages: 1 -->
<svg width="4276pt" height="841pt"
 viewBox="0.00 0.00 4275.88 841.34" xmlns="http://www.w3.org/2000/svg" xmlns:xlink="http://www.w3.org/1999/xlink">
<g id="graph0" class="graph" transform="scale(1 1) rotate(0) translate(4 837.34)">
<title>QuadTree</title>
<polygon fill="white" stroke="none" points="-4,4 -4,-837.34 4271.88,-837.34 4271.88,4 -4,4"/>
<!-- 0x558be62d5360 -->
<g id="node1" class="node">
<title>0x558be62d5360</title>
<ellipse fill="none" stroke="black" cx="2546.44" cy="-757.29" rx="76.09" ry="76.09"/>
<text text-anchor="middle" x="2546.44" y="-753.59" font-family="Times,serif" font-size="14.00">(300.5, 300.5)</text>
</g>
<!-- 0x558be7ef2d40 -->
<g id="node2" class="node">
<title>0x558be7ef2d40</title>
<ellipse fill="none" stroke="black" cx="1389.44" cy="-557.51" rx="87.99" ry="87.99"/>
<text text-anchor="middle" x="1389.44" y="-553.81" font-family="Times,serif" font-size="14.00">(150.75, 150.75)</text>
</g>
<!-- 0x558be62d5360&#45;&gt;0x558be7ef2d40 -->
<g id="edge1" class="edge">
<title>0x558be62d5360&#45;&gt;0x558be7ef2d40</title>
<path fill="none" stroke="black" d="M2471.42,-743.47C2269.19,-708.9 1712.85,-613.79 1486.82,-575.15"/>
<polygon fill="black" stroke="black" points="1487.76,-571.59 1477.31,-573.36 1486.58,-578.49 1487.76,-571.59"/>
</g>
<!-- 0x558be7ef2db0 -->
<g id="node3" class="node">
<title>0x558be7ef2db0</title>
<ellipse fill="none" stroke="black" cx="2227.44" cy="-557.51" rx="87.99" ry="87.99"/>
<text text-anchor="middle" x="2227.44" y="-553.81" font-family="Times,serif" font-size="14.00">(450.25, 150.75)</text>
</g>
<!-- 0x558be62d5360&#45;&gt;0x558be7ef2db0 -->
<g id="edge2" class="edge">
<title>0x558be62d5360&#45;&gt;0x558be7ef2db0</title>
<path fill="none" stroke="black" d="M2481.89,-716.27C2432.67,-685.75 2364.48,-643.47 2311.08,-610.36"/>
<polygon fill="black" stroke="black" points="2313.31,-607.01 2302.97,-604.71 2309.62,-612.96 2313.31,-607.01"/>
</g>
<!-- 0x558be7ef2e20 -->
<g id="node4" class="node">
<title>0x558be7ef2e20</title>
<ellipse fill="none" stroke="black" cx="2866.44" cy="-557.51" rx="87.99" ry="87.99"/>
<text text-anchor="middle" x="2866.44" y="-553.81" font-family="Times,serif" font-size="14.00">(150.75, 450.25)</text>
</g>
<!-- 0x558be62d5360&#45;&gt;0x558be7ef2e20 -->
<g id="edge3" class="edge">
<title>0x558be62d5360&#45;&gt;0x558be7ef2e20</title>
<path fill="none" stroke="black" d="M2610.81,-716.51C2660.24,-685.95 2728.91,-643.51 2782.62,-610.31"/>
<polygon fill="black" stroke="black" points="2784.12,-612.88 2790.79,-604.65 2780.44,-606.93 2784.12,-612.88"/>
</g>
<!-- 0x558be7ef2e90 -->
<g id="node5" class="node">
<title>0x558be7ef2e90</title>
<ellipse fill="none" stroke="black" cx="3734.44" cy="-557.51" rx="87.99" ry="87.99"/>
<text text-anchor="middle" x="3734.44" y="-553.81" font-family="Times,serif" font-size="14.00">(450.25, 450.25)</text>
</g>
<!-- 0x558be62d5360&#45;&gt;0x558be7ef2e90 -->
<g id="edge4" class="edge">
<title>0x558be62d5360&#45;&gt;0x558be7ef2e90</title>
<path fill="none" stroke="black" d="M2621.66,-743.77C2828.52,-709.33 3405.87,-613.21 3636.98,-574.73"/>
<polygon fill="black" stroke="black" points="3637.43,-578.04 3646.72,-572.94 3636.28,-571.13 3637.43,-578.04"/>
</g>
<!-- 0x558be7ef2cd0 -->
<g id="node6" class="node">
<title>0x558be7ef2cd0</title>
<ellipse fill="none" stroke="black" cx="533.44" cy="-334.32" rx="87.99" ry="87.99"/>
<text text-anchor="middle" x="533.44" y="-330.62" font-family="Times,serif" font-size="14.00">(75.875, 75.875)</text>
</g>
<!-- 0x558be7ef2d40&#45;&gt;0x558be7ef2cd0 -->
<g id="edge5" class="edge">
<title>0x558be7ef2d40&#45;&gt;0x558be7ef2cd0</title>
<path fill="none" stroke="black" d="M1304.24,-534.49C1143.71,-493.01 797.5,-403.56 629.2,-360.07"/>
<polygon fill="black" stroke="black" points="630.18,-356.45 619.62,-357.33 628.43,-363.22 630.18,-356.45"/>
</g>
<!-- 0x558be7ef2ff0 -->
<g id="node7" class="node">
<title>0x558be7ef2ff0</title>
<ellipse fill="none" stroke="black" cx="1184.44" cy="-334.32" rx="93.68" ry="93.68"/>
<text text-anchor="middle" x="1184.44" y="-330.62" font-family="Times,serif" font-size="14.00">(225.625, 75.875)</text>
</g>
<!-- 0x558be7ef2d40&#45;&gt;0x558be7ef2ff0 -->
<g id="edge6" class="edge">
<title>0x558be7ef2d40&#45;&gt;0x558be7ef2ff0</title>
<path fill="none" stroke="black" d="M1329.87,-492.23C1306.52,-467.04 1279.53,-437.92 1255.2,-411.66"/>
<polygon fill="black" stroke="black" points="1258.1,-409.57 1248.74,-404.61 1252.97,-414.33 1258.1,-409.57"/>
</g>
<!-- 0x558be7ef3060 -->
<g id="node8" class="node">
<title>0x558be7ef3060</title>
<ellipse fill="none" stroke="black" cx="1389.44" cy="-334.32" rx="93.68" ry="93.68"/>
<text text-anchor="middle" x="1389.44" y="-330.62" font-family="Times,serif" font-size="14.00">(75.875, 225.625)</text>
</g>
<!-- 0x558be7ef2d40&#45;&gt;0x558be7ef3060 -->
<g id="edge7" class="edge">
<title>0x558be7ef2d40&#45;&gt;0x558be7ef3060</title>
<path fill="none" stroke="black" d="M1389.44,-469.09C1389.44,-459.25 1389.44,-449.15 1389.44,-439.12"/>
<polygon fill="black" stroke="black" points="1392.94,-439.29 1389.44,-429.29 1385.94,-439.29 1392.94,-439.29"/>
</g>
<!-- 0x558be7ef30d0 -->
<g id="node9" class="node">
<title>0x558be7ef30d0</title>
<ellipse fill="none" stroke="black" cx="1600.44" cy="-334.32" rx="99.38" ry="99.38"/>
<text text-anchor="middle" x="1600.44" y="-330.62" font-family="Times,serif" font-size="14.00">(225.625, 225.625)</text>
</g>
<!-- 0x558be7ef2d40&#45;&gt;0x558be7ef30d0 -->
<g id="edge8" class="edge">
<title>0x558be7ef2d40&#45;&gt;0x558be7ef30d0</title>
<path fill="none" stroke="black" d="M1449.91,-493.12C1473.19,-468.71 1500.08,-440.53 1524.63,-414.79"/>
<polygon fill="black" stroke="black" points="1526.8,-417.54 1531.17,-407.89 1521.74,-412.71 1526.8,-417.54"/>
</g>
<!-- 0x558be7ef4060 -->
<g id="node18" class="node">
<title>0x558be7ef4060</title>
<ellipse fill="none" stroke="black" cx="1811.44" cy="-334.32" rx="93.68" ry="93.68"/>
<text text-anchor="middle" x="1811.44" y="-330.62" font-family="Times,serif" font-size="14.00">(375.375, 75.875)</text>
</g>
<!-- 0x558be7ef2db0&#45;&gt;0x558be7ef4060 -->
<g id="edge17" class="edge">
<title>0x558be7ef2db0&#45;&gt;0x558be7ef4060</title>
<path fill="none" stroke="black" d="M2142.51,-533.34C2076.76,-513.1 1985.13,-479.73 1913.44,-433.76 1903,-427.07 1892.72,-419.2 1882.94,-410.87"/>
<polygon fill="black" stroke="black" points="1885.68,-407.74 1875.85,-403.78 1881.06,-413.01 1885.68,-407.74"/>
</g>
<!-- 0x558be7ef40d0 -->
<g id="node19" class="node">
<title>0x558be7ef40d0</title>
<ellipse fill="none" stroke="black" cx="2016.44" cy="-334.32" rx="93.68" ry="93.68"/>
<text text-anchor="middle" x="2016.44" y="-330.62" font-family="Times,serif" font-size="14.00">(525.125, 75.875)</text>
</g>
<!-- 0x558be7ef2db0&#45;&gt;0x558be7ef40d0 -->
<g id="edge18" class="edge">
<title>0x558be7ef2db0&#45;&gt;0x558be7ef40d0</title>
<path fill="none" stroke="black" d="M2166.98,-493.12C2142.37,-467.33 2113.74,-437.32 2088.1,-410.44"/>
<polygon fill="black" stroke="black" points="2091.03,-408.39 2081.6,-403.57 2085.97,-413.23 2091.03,-408.39"/>
</g>
<!-- 0x558be7ef4140 -->
<g id="node20" class="node">
<title>0x558be7ef4140</title>
<ellipse fill="none" stroke="black" cx="2227.44" cy="-334.32" rx="99.38" ry="99.38"/>
<text text-anchor="middle" x="2227.44" y="-330.62" font-family="Times,serif" font-size="14.00">(375.375, 225.625)</text>
</g>
<!-- 0x558be7ef2db0&#45;&gt;0x558be7ef4140 -->
<g id="edge19" class="edge">
<title>0x558be7ef2db0&#45;&gt;0x558be7ef4140</title>
<path fill="none" stroke="black" d="M2227.44,-469.09C2227.44,-461.2 2227.44,-453.15 2227.44,-445.11"/>
<polygon fill="black" stroke="black" points="2230.94,-445.15 2227.44,-435.15 2223.94,-445.15 2230.94,-445.15"/>
</g>
<!-- 0x558be7ef41b0 -->
<g id="node21" class="node">
<title>0x558be7ef41b0</title>
<ellipse fill="none" stroke="black" cx="2444.44" cy="-334.32" rx="99.38" ry="99.38"/>
<text text-anchor="middle" x="2444.44" y="-330.62" font-family="Times,serif" font-size="14.00">(525.125, 225.625)</text>
</g>
<!-- 0x558be7ef2db0&#45;&gt;0x558be7ef41b0 -->
<g id="edge20" class="edge">
<title>0x558be7ef2db0&#45;&gt;0x558be7ef41b0</title>
<path fill="none" stroke="black" d="M2288.75,-494.01C2313.28,-469.01 2341.8,-439.94 2367.68,-413.57"/>
<polygon fill="black" stroke="black" points="2369.75,-416.43 2374.26,-406.84 2364.76,-411.53 2369.75,-416.43"/>
</g>
<!-- 0x558be7ef3a10 -->
<g id="node22" class="node">
<title>0x558be7ef3a10</title>
<ellipse fill="none" stroke="black" cx="2655.44" cy="-334.32" rx="93.68" ry="93.68"/>
<text text-anchor="middle" x="2655.44" y="-330.62" font-family="Times,serif" font-size="14.00">(75.875, 375.375)</text>
</g>
<!-- 0x558be7ef2e20&#45;&gt;0x558be7ef3a10 -->
<g id="edge21" class="edge">
<title>0x558be7ef2e20&#45;&gt;0x558be7ef3a10</title>
<path fill="none" stroke="black" d="M2805.98,-493.12C2781.37,-467.33 2752.74,-437.32 2727.1,-410.44"/>
<polygon fill="black" stroke="black" points="2730.03,-408.39 2720.6,-403.57 2724.97,-413.23 2730.03,-408.39"/>
</g>
<!-- 0x558be7ef3a80 -->
<g id="node23" class="node">
<title>0x558be7ef3a80</title>
<ellipse fill="none" stroke="black" cx="2866.44" cy="-334.32" rx="99.38" ry="99.38"/>
<text text-anchor="middle" x="2866.44" y="-330.62" font-family="Times,serif" font-size="14.00">(225.625, 375.375)</text>
</g>
<!-- 0x558be7ef2e20&#45;&gt;0x558be7ef3a80 -->
<g id="edge22" class="edge">
<title>0x558be7ef2e20&#45;&gt;0x558be7ef3a80</title>
<path fill="none" stroke="black" d="M2866.44,-469.09C2866.44,-461.2 2866.44,-453.15 2866.44,-445.11"/>
<polygon fill="black" stroke="black" points="2869.94,-445.15 2866.44,-435.15 2862.94,-445.15 2869.94,-445.15"/>
</g>
<!-- 0x558be7ef3af0 -->
<g id="node24" class="node">
<title>0x558be7ef3af0</title>
<ellipse fill="none" stroke="black" cx="3077.44" cy="-334.32" rx="93.68" ry="93.68"/>
<text text-anchor="middle" x="3077.44" y="-330.62" font-family="Times,serif" font-size="14.00">(75.875, 525.125)</text>
</g>
<!-- 0x558be7ef2e20&#45;&gt;0x558be7ef3af0 -->
<g id="edge23" class="edge">
<title>0x558be7ef2e20&#45;&gt;0x558be7ef3af0</title>
<path fill="none" stroke="black" d="M2926.91,-493.12C2951.51,-467.33 2980.14,-437.32 3005.79,-410.44"/>
<polygon fill="black" stroke="black" points="3007.92,-413.23 3012.29,-403.57 3002.85,-408.39 3007.92,-413.23"/>
</g>
<!-- 0x558be7ef3b60 -->
<g id="node25" class="node">
<title>0x558be7ef3b60</title>
<ellipse fill="none" stroke="black" cx="3288.44" cy="-334.32" rx="99.38" ry="99.38"/>
<text text-anchor="middle" x="3288.44" y="-330.62" font-family="Times,serif" font-size="14.00">(225.625, 525.125)</text>
</g>
<!-- 0x558be7ef2e20&#45;&gt;0x558be7ef3b60 -->
<g id="edge24" class="edge">
<title>0x558be7ef2e20&#45;&gt;0x558be7ef3b60</title>
<path fill="none" stroke="black" d="M2951.35,-532.66C3016.87,-512.09 3108.23,-478.63 3180.44,-433.76 3190.61,-427.45 3200.7,-420.12 3210.39,-412.36"/>
<polygon fill="black" stroke="black" points="3212.3,-414.5 3217.8,-405.45 3207.85,-409.09 3212.3,-414.5"/>
</g>
<!-- 0x558be7ef33f0 -->
<g id="node30" class="node">
<title>0x558be7ef33f0</title>
<ellipse fill="none" stroke="black" cx="3517.44" cy="-334.32" rx="99.38" ry="99.38"/>
<text text-anchor="middle" x="3517.44" y="-330.62" font-family="Times,serif" font-size="14.00">(375.375, 375.375)</text>
</g>
<!-- 0x558be7ef2e90&#45;&gt;0x558be7ef33f0 -->
<g id="edge29" class="edge">
<title>0x558be7ef2e90&#45;&gt;0x558be7ef33f0</title>
<path fill="none" stroke="black" d="M3673.13,-494.01C3648.6,-469.01 3620.08,-439.94 3594.2,-413.57"/>
<polygon fill="black" stroke="black" points="3597.13,-411.53 3587.62,-406.84 3592.13,-416.43 3597.13,-411.53"/>
</g>
<!-- 0x558be7ef3460 -->
<g id="node31" class="node">
<title>0x558be7ef3460</title>
<ellipse fill="none" stroke="black" cx="3734.44" cy="-334.32" rx="99.38" ry="99.38"/>
<text text-anchor="middle" x="3734.44" y="-330.62" font-family="Times,serif" font-size="14.00">(525.125, 375.375)</text>
</g>
<!-- 0x558be7ef2e90&#45;&gt;0x558be7ef3460 -->
<g id="edge30" class="edge">
<title>0x558be7ef2e90&#45;&gt;0x558be7ef3460</title>
<path fill="none" stroke="black" d="M3734.44,-469.09C3734.44,-461.2 3734.44,-453.15 3734.44,-445.11"/>
<polygon fill="black" stroke="black" points="3737.94,-445.15 3734.44,-435.15 3730.94,-445.15 3737.94,-445.15"/>
</g>
<!-- 0x558be7ef34d0 -->
<g id="node32" class="node">
<title>0x558be7ef34d0</title>
<ellipse fill="none" stroke="black" cx="3951.44" cy="-334.32" rx="99.38" ry="99.38"/>
<text text-anchor="middle" x="3951.44" y="-330.62" font-family="Times,serif" font-size="14.00">(375.375, 525.125)</text>
</g>
<!-- 0x558be7ef2e90&#45;&gt;0x558be7ef34d0 -->
<g id="edge31" class="edge">
<title>0x558be7ef2e90&#45;&gt;0x558be7ef34d0</title>
<path fill="none" stroke="black" d="M3795.75,-494.01C3820.28,-469.01 3848.8,-439.94 3874.68,-413.57"/>
<polygon fill="black" stroke="black" points="3876.75,-416.43 3881.26,-406.84 3871.76,-411.53 3876.75,-416.43"/>
</g>
<!-- 0x558be7ef3540 -->
<g id="node33" class="node">
<title>0x558be7ef3540</title>
<ellipse fill="none" stroke="black" cx="4168.44" cy="-334.32" rx="99.38" ry="99.38"/>
<text text-anchor="middle" x="4168.44" y="-330.62" font-family="Times,serif" font-size="14.00">(525.125, 525.125)</text>
</g>
<!-- 0x558be7ef2e90&#45;&gt;0x558be7ef3540 -->
<g id="edge32" class="edge">
<title>0x558be7ef2e90&#45;&gt;0x558be7ef3540</title>
<path fill="none" stroke="black" d="M3819.52,-533.92C3887.5,-513.67 3983.63,-480.02 4059.44,-433.76 4069.9,-427.38 4080.27,-419.93 4090.22,-412.03"/>
<polygon fill="black" stroke="black" points="4091.93,-414.34 4097.47,-405.31 4087.51,-408.91 4091.93,-414.34"/>
</g>
<!-- 0x558be7ef4280 -->
<g id="node10" class="node">
<title>0x558be7ef4280</title>
<ellipse fill="none" stroke="black" cx="99.44" cy="-99.44" rx="99.38" ry="99.38"/>
<text text-anchor="middle" x="99.44" y="-95.74" font-family="Times,serif" font-size="14.00">(38.4375, 38.4375)</text>
</g>
<!-- 0x558be7ef2cd0&#45;&gt;0x558be7ef4280 -->
<g id="edge9" class="edge">
<title>0x558be7ef2cd0&#45;&gt;0x558be7ef4280</title>
<path fill="none" stroke="black" d="M449.17,-307.38C381.2,-284.41 284.72,-247.06 208.44,-198.88 198.08,-192.34 187.77,-184.79 177.86,-176.83"/>
<polygon fill="black" stroke="black" points="180.58,-173.71 170.63,-170.07 176.13,-179.12 180.58,-173.71"/>
</g>
<!-- 0x558be7ef42f0 -->
<g id="node11" class="node">
<title>0x558be7ef42f0</title>
<ellipse fill="none" stroke="black" cx="316.44" cy="-99.44" rx="99.38" ry="99.38"/>
<text text-anchor="middle" x="316.44" y="-95.74" font-family="Times,serif" font-size="14.00">(113.312, 38.4375)</text>
</g>
<!-- 0x558be7ef2cd0&#45;&gt;0x558be7ef42f0 -->
<g id="edge10" class="edge">
<title>0x558be7ef2cd0&#45;&gt;0x558be7ef42f0</title>
<path fill="none" stroke="black" d="M473.86,-269.38C448.29,-241.94 418.14,-209.58 391.1,-180.56"/>
<polygon fill="black" stroke="black" points="394.31,-178.8 384.93,-173.87 389.19,-183.57 394.31,-178.8"/>
</g>
<!-- 0x558be7ef4360 -->
<g id="node12" class="node">
<title>0x558be7ef4360</title>
<ellipse fill="none" stroke="black" cx="533.44" cy="-99.44" rx="99.38" ry="99.38"/>
<text text-anchor="middle" x="533.44" y="-95.74" font-family="Times,serif" font-size="14.00">(38.4375, 113.312)</text>
</g>
<!-- 0x558be7ef2cd0&#45;&gt;0x558be7ef4360 -->
<g id="edge11" class="edge">
<title>0x558be7ef2cd0&#45;&gt;0x558be7ef4360</title>
<path fill="none" stroke="black" d="M533.44,-245.94C533.44,-234.28 533.44,-222.21 533.44,-210.23"/>
<polygon fill="black" stroke="black" points="536.94,-210.26 533.44,-200.26 529.94,-210.26 536.94,-210.26"/>
</g>
<!-- 0x558be7ef43d0 -->
<g id="node13" class="node">
<title>0x558be7ef43d0</title>
<ellipse fill="none" stroke="black" cx="750.44" cy="-99.44" rx="99.38" ry="99.38"/>
<text text-anchor="middle" x="750.44" y="-95.74" font-family="Times,serif" font-size="14.00">(113.312, 113.312)</text>
</g>
<!-- 0x558be7ef2cd0&#45;&gt;0x558be7ef43d0 -->
<g id="edge12" class="edge">
<title>0x558be7ef2cd0&#45;&gt;0x558be7ef43d0</title>
<path fill="none" stroke="black" d="M593.02,-269.38C618.59,-241.94 648.75,-209.58 675.78,-180.56"/>
<polygon fill="black" stroke="black" points="677.7,-183.57 681.95,-173.87 672.58,-178.8 677.7,-183.57"/>
</g>
<!-- 0x558be7ef37f0 -->
<g id="node14" class="node">
<title>0x558be7ef37f0</title>
<ellipse fill="none" stroke="black" cx="967.44" cy="-99.44" rx="99.38" ry="99.38"/>
<text text-anchor="middle" x="967.44" y="-95.74" font-family="Times,serif" font-size="14.00">(188.188, 38.4375)</text>
</g>
<!-- 0x558be7ef2ff0&#45;&gt;0x558be7ef37f0 -->
<g id="edge13" class="edge">
<title>0x558be7ef2ff0&#45;&gt;0x558be7ef37f0</title>
<path fill="none" stroke="black" d="M1120.8,-265.02C1096.21,-238.64 1067.9,-208.25 1042.34,-180.82"/>
<polygon fill="black" stroke="black" points="1045.24,-178.73 1035.86,-173.8 1040.12,-183.5 1045.24,-178.73"/>
</g>
<!-- 0x558be7ef3860 -->
<g id="node15" class="node">
<title>0x558be7ef3860</title>
<ellipse fill="none" stroke="black" cx="1184.44" cy="-99.44" rx="99.38" ry="99.38"/>
<text text-anchor="middle" x="1184.44" y="-95.74" font-family="Times,serif" font-size="14.00">(263.062, 38.4375)</text>
</g>
<!-- 0x558be7ef2ff0&#45;&gt;0x558be7ef3860 -->
<g id="edge14" class="edge">
<title>0x558be7ef2ff0&#45;&gt;0x558be7ef3860</title>
<path fill="none" stroke="black" d="M1184.44,-240.28C1184.44,-230.32 1184.44,-220.13 1184.44,-210.01"/>
<polygon fill="black" stroke="black" points="1187.94,-210.06 1184.44,-200.06 1180.94,-210.06 1187.94,-210.06"/>
</g>
<!-- 0x558be7ef38d0 -->
<g id="node16" class="node">
<title>0x558be7ef38d0</title>
<ellipse fill="none" stroke="black" cx="1401.44" cy="-99.44" rx="99.38" ry="99.38"/>
<text text-anchor="middle" x="1401.44" y="-95.74" font-family="Times,serif" font-size="14.00">(188.188, 113.312)</text>
</g>
<!-- 0x558be7ef2ff0&#45;&gt;0x558be7ef38d0 -->
<g id="edge15" class="edge">
<title>0x558be7ef2ff0&#45;&gt;0x558be7ef38d0</title>
<path fill="none" stroke="black" d="M1248.08,-265.02C1272.67,-238.64 1300.98,-208.25 1326.54,-180.82"/>
<polygon fill="black" stroke="black" points="1328.76,-183.5 1333.02,-173.8 1323.64,-178.73 1328.76,-183.5"/>
</g>
<!-- 0x558be7ef3940 -->
<g id="node17" class="node">
<title>0x558be7ef3940</title>
<ellipse fill="none" stroke="black" cx="1618.44" cy="-99.44" rx="99.38" ry="99.38"/>
<text text-anchor="middle" x="1618.44" y="-95.74" font-family="Times,serif" font-size="14.00">(263.062, 113.312)</text>
</g>
<!-- 0x558be7ef2ff0&#45;&gt;0x558be7ef3940 -->
<g id="edge16" class="edge">
<title>0x558be7ef2ff0&#45;&gt;0x558be7ef3940</title>
<path fill="none" stroke="black" d="M1245.59,-263.15C1258.1,-252.21 1271.91,-242.15 1286.44,-234.88 1376.23,-189.97 1418.92,-242.31 1509.44,-198.88 1520.67,-193.5 1531.58,-186.58 1541.88,-178.92"/>
<polygon fill="black" stroke="black" points="1543.63,-181.22 1549.39,-172.33 1539.34,-175.69 1543.63,-181.22"/>
</g>
<!-- 0x558be7ef4520 -->
<g id="node26" class="node">
<title>0x558be7ef4520</title>
<ellipse fill="none" stroke="black" cx="2432.44" cy="-99.44" rx="99.38" ry="99.38"/>
<text text-anchor="middle" x="2432.44" y="-95.74" font-family="Times,serif" font-size="14.00">(188.188, 337.938)</text>
</g>
<!-- 0x558be7ef3a80&#45;&gt;0x558be7ef4520 -->
<g id="edge25" class="edge">
<title>0x558be7ef3a80&#45;&gt;0x558be7ef4520</title>
<path fill="none" stroke="black" d="M2798.76,-261.24C2786.22,-251.06 2772.59,-241.75 2758.44,-234.88 2670.49,-192.2 2629.49,-241.36 2541.44,-198.88 2530.23,-193.47 2519.33,-186.55 2509.03,-178.88"/>
<polygon fill="black" stroke="black" points="2511.57,-175.64 2501.52,-172.28 2507.28,-181.17 2511.57,-175.64"/>
</g>
<!-- 0x558be7ef4590 -->
<g id="node27" class="node">
<title>0x558be7ef4590</title>
<ellipse fill="none" stroke="black" cx="2649.44" cy="-99.44" rx="99.38" ry="99.38"/>
<text text-anchor="middle" x="2649.44" y="-95.74" font-family="Times,serif" font-size="14.00">(263.062, 337.938)</text>
</g>
<!-- 0x558be7ef3a80&#45;&gt;0x558be7ef4590 -->
<g id="edge26" class="edge">
<title>0x558be7ef3a80&#45;&gt;0x558be7ef4590</title>
<path fill="none" stroke="black" d="M2798.97,-260.91C2775.29,-235.5 2748.56,-206.81 2724.31,-180.79"/>
<polygon fill="black" stroke="black" points="2727.25,-178.74 2717.87,-173.81 2722.13,-183.51 2727.25,-178.74"/>
</g>
<!-- 0x558be7ef4600 -->
<g id="node28" class="node">
<title>0x558be7ef4600</title>
<ellipse fill="none" stroke="black" cx="2866.44" cy="-99.44" rx="99.38" ry="99.38"/>
<text text-anchor="middle" x="2866.44" y="-95.74" font-family="Times,serif" font-size="14.00">(188.188, 412.812)</text>
</g>
<!-- 0x558be7ef3a80&#45;&gt;0x558be7ef4600 -->
<g id="edge27" class="edge">
<title>0x558be7ef3a80&#45;&gt;0x558be7ef4600</title>
<path fill="none" stroke="black" d="M2866.44,-234.56C2866.44,-226.37 2866.44,-218.06 2866.44,-209.8"/>
<polygon fill="black" stroke="black" points="2869.94,-209.99 2866.44,-199.99 2862.94,-209.99 2869.94,-209.99"/>
</g>
<!-- 0x558be7ef4670 -->
<g id="node29" class="node">
<title>0x558be7ef4670</title>
<ellipse fill="none" stroke="black" cx="3083.44" cy="-99.44" rx="99.38" ry="99.38"/>
<text text-anchor="middle" x="3083.44" y="-95.74" font-family="Times,serif" font-size="14.00">(263.062, 412.812)</text>
</g>
<!-- 0x558be7ef3a80&#45;&gt;0x558be7ef4670 -->
<g id="edge28" class="edge">
<title>0x558be7ef3a80&#45;&gt;0x558be7ef4670</title>
<path fill="none" stroke="black" d="M2933.91,-260.91C2957.59,-235.5 2984.32,-206.81 3008.57,-180.79"/>
<polygon fill="black" stroke="black" points="3010.76,-183.51 3015.01,-173.81 3005.63,-178.74 3010.76,-183.51"/>
</g>
<!-- 0x558be7ef35f0 -->
<g id="node34" class="node">
<title>0x558be7ef35f0</title>
<ellipse fill="none" stroke="black" cx="3300.44" cy="-99.44" rx="99.38" ry="99.38"/>
<text text-anchor="middle" x="3300.44" y="-95.74" font-family="Times,serif" font-size="14.00">(337.938, 337.938)</text>
</g>
<!-- 0x558be7ef33f0&#45;&gt;0x558be7ef35f0 -->
<g id="edge33" class="edge">
<title>0x558be7ef33f0&#45;&gt;0x558be7ef35f0</title>
<path fill="none" stroke="black" d="M3449.97,-260.91C3426.29,-235.5 3399.56,-206.81 3375.31,-180.79"/>
<polygon fill="black" stroke="black" points="3378.25,-178.74 3368.87,-173.81 3373.13,-183.51 3378.25,-178.74"/>
</g>
<!-- 0x558be7ef3660 -->
<g id="node35" class="node">
<title>0x558be7ef3660</title>
<ellipse fill="none" stroke="black" cx="3517.44" cy="-99.44" rx="99.38" ry="99.38"/>
<text text-anchor="middle" x="3517.44" y="-95.74" font-family="Times,serif" font-size="14.00">(412.812, 337.938)</text>
</g>
<!-- 0x558be7ef33f0&#45;&gt;0x558be7ef3660 -->
<g id="edge34" class="edge">
<title>0x558be7ef33f0&#45;&gt;0x558be7ef3660</title>
<path fill="none" stroke="black" d="M3517.44,-234.56C3517.44,-226.37 3517.44,-218.06 3517.44,-209.8"/>
<polygon fill="black" stroke="black" points="3520.94,-209.99 3517.44,-199.99 3513.94,-209.99 3520.94,-209.99"/>
</g>
<!-- 0x558be7ef36d0 -->
<g id="node36" class="node">
<title>0x558be7ef36d0</title>
<ellipse fill="none" stroke="black" cx="3734.44" cy="-99.44" rx="99.38" ry="99.38"/>
<text text-anchor="middle" x="3734.44" y="-95.74" font-family="Times,serif" font-size="14.00">(337.938, 412.812)</text>
</g>
<!-- 0x558be7ef33f0&#45;&gt;0x558be7ef36d0 -->
<g id="edge35" class="edge">
<title>0x558be7ef33f0&#45;&gt;0x558be7ef36d0</title>
<path fill="none" stroke="black" d="M3584.91,-260.91C3608.59,-235.5 3635.32,-206.81 3659.57,-180.79"/>
<polygon fill="black" stroke="black" points="3661.76,-183.51 3666.01,-173.81 3656.63,-178.74 3661.76,-183.51"/>
</g>
<!-- 0x558be7ef3740 -->
<g id="node37" class="node">
<title>0x558be7ef3740</title>
<ellipse fill="none" stroke="black" cx="3951.44" cy="-99.44" rx="99.38" ry="99.38"/>
<text text-anchor="middle" x="3951.44" y="-95.74" font-family="Times,serif" font-size="14.00">(412.812, 412.812)</text>
</g>
<!-- 0x558be7ef33f0&#45;&gt;0x558be7ef3740 -->
<g id="edge36" class="edge">
<title>0x558be7ef33f0&#45;&gt;0x558be7ef3740</title>
<path fill="none" stroke="black" d="M3585.53,-261.5C3598.25,-251.23 3612.09,-241.81 3626.44,-234.88 3714.08,-192.56 3754.8,-241.2 3842.44,-198.88 3853.65,-193.47 3864.55,-186.54 3874.85,-178.87"/>
<polygon fill="black" stroke="black" points="3876.6,-181.16 3882.36,-172.27 3872.31,-175.63 3876.6,-181.16"/>
</g>
</g>
</svg>
